<?xml version="1.0" standalone="no"?>
<svg xmlns:xlink="http://www.w3.org/1999/xlink" id="wave" style="transform:rotate(0deg); transition: 0.3s" viewBox="0 0 1440 100" version="1.1" xmlns="http://www.w3.org/2000/svg"><defs><linearGradient id="sw-gradient-0" x1="0" x2="0" y1="1" y2="0"><stop stop-color="rgba(245, 174, 64, 1)" offset="0%"/><stop stop-color="rgba(245, 174, 64, 1)" offset="100%"/></linearGradient></defs><path style="transform:translate(0, 0px); opacity:1" fill="url(#sw-gradient-0)" d="M0,50L30,41.7C60,33,120,17,180,16.7C240,17,300,33,360,38.3C420,43,480,37,540,36.7C600,37,660,43,720,50C780,57,840,63,900,70C960,77,1020,83,1080,73.3C1140,63,1200,37,1260,23.3C1320,10,1380,10,1440,10C1500,10,1560,10,1620,15C1680,20,1740,30,1800,28.3C1860,27,1920,13,1980,16.7C2040,20,2100,40,2160,45C2220,50,2280,40,2340,43.3C2400,47,2460,63,2520,66.7C2580,70,2640,60,2700,48.3C2760,37,2820,23,2880,21.7C2940,20,3000,30,3060,28.3C3120,27,3180,13,3240,13.3C3300,13,3360,27,3420,31.7C3480,37,3540,33,3600,31.7C3660,30,3720,30,3780,26.7C3840,23,3900,17,3960,15C4020,13,4080,17,4140,25C4200,33,4260,47,4290,53.3L4320,60L4320,100L4290,100C4260,100,4200,100,4140,100C4080,100,4020,100,3960,100C3900,100,3840,100,3780,100C3720,100,3660,100,3600,100C3540,100,3480,100,3420,100C3360,100,3300,100,3240,100C3180,100,3120,100,3060,100C3000,100,2940,100,2880,100C2820,100,2760,100,2700,100C2640,100,2580,100,2520,100C2460,100,2400,100,2340,100C2280,100,2220,100,2160,100C2100,100,2040,100,1980,100C1920,100,1860,100,1800,100C1740,100,1680,100,1620,100C1560,100,1500,100,1440,100C1380,100,1320,100,1260,100C1200,100,1140,100,1080,100C1020,100,960,100,900,100C840,100,780,100,720,100C660,100,600,100,540,100C480,100,420,100,360,100C300,100,240,100,180,100C120,100,60,100,30,100L0,100Z"/></svg>