<?xml version="1.0" standalone="no"?>
<svg xmlns:xlink="http://www.w3.org/1999/xlink" id="wave" style="transform:rotate(0deg); transition: 0.3s" viewBox="0 0 1440 100" version="1.1" xmlns="http://www.w3.org/2000/svg"><defs><linearGradient id="sw-gradient-0" x1="0" x2="0" y1="1" y2="0"><stop stop-color="rgba(250, 243, 230, 1)" offset="0%"/><stop stop-color="rgba(250, 243, 230, 1)" offset="100%"/></linearGradient></defs><path style="transform:translate(0, 0px); opacity:1" fill="url(#sw-gradient-0)" d="M0,70L34.3,70C68.6,70,137,70,206,68.3C274.3,67,343,63,411,61.7C480,60,549,60,617,65C685.7,70,754,80,823,70C891.4,60,960,30,1029,30C1097.1,30,1166,60,1234,61.7C1302.9,63,1371,37,1440,36.7C1508.6,37,1577,63,1646,75C1714.3,87,1783,83,1851,75C1920,67,1989,53,2057,50C2125.7,47,2194,53,2263,55C2331.4,57,2400,53,2469,45C2537.1,37,2606,23,2674,20C2742.9,17,2811,23,2880,26.7C2948.6,30,3017,30,3086,28.3C3154.3,27,3223,23,3291,18.3C3360,13,3429,7,3497,15C3565.7,23,3634,47,3703,61.7C3771.4,77,3840,83,3909,73.3C3977.1,63,4046,37,4114,26.7C4182.9,17,4251,23,4320,23.3C4388.6,23,4457,17,4526,13.3C4594.3,10,4663,10,4731,20C4800,30,4869,50,4903,60L4937.1,70L4937.1,100L4902.9,100C4868.6,100,4800,100,4731,100C4662.9,100,4594,100,4526,100C4457.1,100,4389,100,4320,100C4251.4,100,4183,100,4114,100C4045.7,100,3977,100,3909,100C3840,100,3771,100,3703,100C3634.3,100,3566,100,3497,100C3428.6,100,3360,100,3291,100C3222.9,100,3154,100,3086,100C3017.1,100,2949,100,2880,100C2811.4,100,2743,100,2674,100C2605.7,100,2537,100,2469,100C2400,100,2331,100,2263,100C2194.3,100,2126,100,2057,100C1988.6,100,1920,100,1851,100C1782.9,100,1714,100,1646,100C1577.1,100,1509,100,1440,100C1371.4,100,1303,100,1234,100C1165.7,100,1097,100,1029,100C960,100,891,100,823,100C754.3,100,686,100,617,100C548.6,100,480,100,411,100C342.9,100,274,100,206,100C137.1,100,69,100,34,100L0,100Z"/></svg>