<?xml version="1.0" standalone="no"?>
<svg xmlns:xlink="http://www.w3.org/1999/xlink" id="wave" style="transform:rotate(0deg); transition: 0.3s" viewBox="0 0 1440 100" version="1.1" xmlns="http://www.w3.org/2000/svg"><defs><linearGradient id="sw-gradient-0" x1="0" x2="0" y1="1" y2="0"><stop stop-color="rgba(240, 151, 40, 1)" offset="0%"/><stop stop-color="rgba(255, 175.574, 0, 0.16)" offset="100%"/></linearGradient></defs><path style="transform:translate(0, 0px); opacity:1" fill="url(#sw-gradient-0)" d="M0,20L30,23.3C60,27,120,33,180,38.3C240,43,300,47,360,48.3C420,50,480,50,540,53.3C600,57,660,63,720,66.7C780,70,840,70,900,66.7C960,63,1020,57,1080,46.7C1140,37,1200,23,1260,25C1320,27,1380,43,1440,45C1500,47,1560,33,1620,28.3C1680,23,1740,27,1800,26.7C1860,27,1920,23,1980,31.7C2040,40,2100,60,2160,63.3C2220,67,2280,53,2340,53.3C2400,53,2460,67,2520,63.3C2580,60,2640,40,2700,33.3C2760,27,2820,33,2880,45C2940,57,3000,73,3060,66.7C3120,60,3180,30,3240,18.3C3300,7,3360,13,3420,18.3C3480,23,3540,27,3600,28.3C3660,30,3720,30,3780,25C3840,20,3900,10,3960,6.7C4020,3,4080,7,4140,15C4200,23,4260,37,4290,43.3L4320,50L4320,100L4290,100C4260,100,4200,100,4140,100C4080,100,4020,100,3960,100C3900,100,3840,100,3780,100C3720,100,3660,100,3600,100C3540,100,3480,100,3420,100C3360,100,3300,100,3240,100C3180,100,3120,100,3060,100C3000,100,2940,100,2880,100C2820,100,2760,100,2700,100C2640,100,2580,100,2520,100C2460,100,2400,100,2340,100C2280,100,2220,100,2160,100C2100,100,2040,100,1980,100C1920,100,1860,100,1800,100C1740,100,1680,100,1620,100C1560,100,1500,100,1440,100C1380,100,1320,100,1260,100C1200,100,1140,100,1080,100C1020,100,960,100,900,100C840,100,780,100,720,100C660,100,600,100,540,100C480,100,420,100,360,100C300,100,240,100,180,100C120,100,60,100,30,100L0,100Z"/><defs><linearGradient id="sw-gradient-1" x1="0" x2="0" y1="1" y2="0"><stop stop-color="rgba(243, 106, 62, 1)" offset="0%"/><stop stop-color="rgba(255, 179, 11, 1)" offset="100%"/></linearGradient></defs><path style="transform:translate(0, 50px); opacity:0.9" fill="url(#sw-gradient-1)" d="M0,70L30,68.3C60,67,120,63,180,53.3C240,43,300,27,360,20C420,13,480,17,540,15C600,13,660,7,720,11.7C780,17,840,33,900,43.3C960,53,1020,57,1080,58.3C1140,60,1200,60,1260,50C1320,40,1380,20,1440,21.7C1500,23,1560,47,1620,58.3C1680,70,1740,70,1800,66.7C1860,63,1920,57,1980,60C2040,63,2100,77,2160,75C2220,73,2280,57,2340,41.7C2400,27,2460,13,2520,15C2580,17,2640,33,2700,46.7C2760,60,2820,70,2880,68.3C2940,67,3000,53,3060,48.3C3120,43,3180,47,3240,43.3C3300,40,3360,30,3420,26.7C3480,23,3540,27,3600,30C3660,33,3720,37,3780,41.7C3840,47,3900,53,3960,53.3C4020,53,4080,47,4140,40C4200,33,4260,27,4290,23.3L4320,20L4320,100L4290,100C4260,100,4200,100,4140,100C4080,100,4020,100,3960,100C3900,100,3840,100,3780,100C3720,100,3660,100,3600,100C3540,100,3480,100,3420,100C3360,100,3300,100,3240,100C3180,100,3120,100,3060,100C3000,100,2940,100,2880,100C2820,100,2760,100,2700,100C2640,100,2580,100,2520,100C2460,100,2400,100,2340,100C2280,100,2220,100,2160,100C2100,100,2040,100,1980,100C1920,100,1860,100,1800,100C1740,100,1680,100,1620,100C1560,100,1500,100,1440,100C1380,100,1320,100,1260,100C1200,100,1140,100,1080,100C1020,100,960,100,900,100C840,100,780,100,720,100C660,100,600,100,540,100C480,100,420,100,360,100C300,100,240,100,180,100C120,100,60,100,30,100L0,100Z"/></svg>